<?xml version="1.0" encoding="UTF-8"?>
<!-- Created with Inkscape (http://www.inkscape.org/) -->
<svg width="500" height="500" version="1.1" viewBox="0 0 500 500" xmlns="http://www.w3.org/2000/svg">
 <rect width="500" height="500" fill="#fb0" fill-rule="evenodd" stroke-width="0"/>
 <path d="m237.25 98.459c-15.731 2.2525-30.992 7.509-44.375 16.129-11.717 7.547-22.003 17.173-29.854 28.725-7.1955 10.587-12.213 21.885-15.25 34.328-17.27 70.753 48.245 131.2 117.11 121.29 15.062-2.166 29.963-7.7933 42.701-16.087 11.753-7.6518 21.862-17.376 29.707-29.016 6.6814-9.9116 11.748-20.987 14.471-32.653 16.094-68.934-44.714-132.71-114.51-122.72m11.722 5.5023c-4.2182 4.7796-13.596 4.616-19.257 2.5118 4.5313 4.2462 18.973 4.5394 20.094-3.3491 24.153 0 47.437 6.6622 66.144 22.606v0.83727l-1.6745 1.6745h-0.83727c-3.3365-2.6483-7.337-4.6421-7.5354-9.21-2.2037 5.0201 5.5486 12.259 10.047 8.3727 7.4324 2.0865 19.646 16.426 21.06 24.248 0.50738 2.8099-3.2704 4.7523-2.3511 7.311 0.93691 2.6073 5.3041 1.3329 7.2466 1.0943 9.2602 27.374 15.376 71.972-15.071 89.281-9.4888 5.3937-22.3 0.47724-32.654 5.4431-9.1103 4.3697-14.595 13.362-22.606 19.206-10.89 7.944-25.569 8.6825-37.677 3.0175-6.2025-2.902-11.244-7.9415-17.583-10.535-13.5-5.5243-36.08 2.413-45.213-12.638 4.0666 2.1401 8.6482 5.4665 13.393 5.6566 1.6695 0.067 5.4674-0.86992 4.1587-3.3382-2.6508-4.9977-11.037-6.3406-14.203-11.528l-5.0236 8.3727c-8.6456-6.6169-14.335-18.649-15.908-29.304l3.3491-1.6745v-0.83727c8.7737-4.3362-1.1688-6.6973-5.8609-6.6982-0.13312-16.098 0.56097-29.396 4.1864-45.213 2.2606 1.5339 6.4411 5.8542 8.4732 1.7306 1.9835-4.0264-5.0111-7.2348-3.869-11.778 3.9645-15.767 23.106-34.301 37.259-41.026-0.11471 5.5486-0.84815 13.459-5.8609 16.745l4.1863-15.071h-0.83727l-4.1863 16.745c6.5876-3.6044 9.1949-12.204 7.5354-19.257 13.17-7.6872 35.46-18.011 51.073-13.396m-20.094 1.6745 0.83727 0.83727-0.83727-0.83727m36.84 2.5118 11.722 2.5118-11.722-2.5118m-30.979 3.3491v0.83727h9.21l-9.21-0.83727m30.142 1.6745v0.83727l6.6982-0.83727c-3.4998 3.6791-11.218 7.3583-14.234 1.6745h-0.83727c0.74685 9.7872 14.48 4.2008 15.908-2.5118l-7.5354 0.83727m20.094 0v0.83727l4.1864 1.6745v-0.83727l-4.1864-1.6745m-22.048 1.1163 0.55762 0.27915-0.55762-0.27915m-2.5118 0.83727 0.55762 0.27915-0.55762-0.27915m-39.145 1.4007c-7.8059 0.12115 0.23946 14.971 5.0672 14.295 5.9999-0.84146-0.92016-14.359-5.0672-14.295m36.912-0.84246 0.83727 0.83727-0.83727-0.83727m-36.003 1.6745 5.8609 11.722-1.6745 0.83728h-0.83727l-7.5354-11.722 4.1863-0.83727m43.538 3.3491-6.6982 3.3491 7.5354-2.5118-0.83727-0.83727m16.745 0c5.9697 7.6016 17.895 11.265 25.085 18.453 12.839 12.835 21.469 32.8 22.41 51.041 0.38766 7.5212-2.4817 14.457-3.1197 21.769 12.147-7.0264 10.319-19.755 8.5996-31.816-3.3064-23.184-15.58-41.759-36.229-53.218-5.2338-2.9044-11.225-3.979-16.745-6.2284m-66.144 0.83727 2.5118 7.5354h0.83727l-3.3491-7.5354m-25.955 2.5118-1.6745 8.3727h0.83727l0.83727-8.3727m54.802 1.7884c-4.5254 2.6031 4.8243 11.686 8.5602 9.7986 5.109-2.5805-4.5891-12.083-8.5602-9.7986m8.8307 9.0961-10.047-6.6982c4.3128-3.0853 10.776 1.7675 10.047 6.6982m-6.6982-5.8609 0.83727 0.83728-0.83727-0.83728m-5.0236 2.5118 5.0236 4.1864-5.0236-4.1864m30.979 5.8609c0.67986 2.3611 1.6017 4.5079 2.7287 6.6982 0.71837 1.3949 1.4376 2.8367 2.3829 4.0951 1.2743 1.6972 5.5143 4.9357 6.8547 1.3991 2.5143-6.6328-5.6809-15.641-11.966-12.192m-68.639-0.83978c-4.574 0.5459-8.582 7.9248-10.128 11.723-0.69828 1.7172-1.3606 5.5344 1.7633 5.0906 3.5869-0.51073 16.408-17.774 8.3643-16.814m73.663 3e-3 5.0236 12.559c-4.6351-1.446-6.6052-6.6613-8.3727-10.884l3.3491-1.6745m-71.168 1.6745v1.6745l-12.559 11.722c1.9709-5.2003 6.2393-13.93 12.559-13.396m63.632 0.83727 5.0236 7.5354-5.0236-7.5354m-63.632 26.793c6.9284-4.8838 14.183-13.602 18.42-20.932-8.9152 2.8467-16.293 11.983-18.42 20.932m45.213 68.656-10.047-1.6745v0.83727l8.3727 1.6745v3.3491c-6.1908-1.1663-10.953-1.4686-15.071-6.6982 11.447 0 21.779-0.67316 31.816-6.8924 7.2248-4.4769 13.474-10.842 17.689-18.226 3.1892-5.5854 5.5168-12.025 6.3498-18.42 5.351-41.076-43.304-54.494-70.076-29.996-6.601 6.0392-11.296 13.974-13.956 22.461-2.4364 7.7766-2.7613 16.37-0.72759 24.281 3.8439 14.949 14.099 18.302 25.377 26.027 2.2916 1.569 3.1825 4.3572 5.3803 6.0166 5.0898 3.8439 14.63 5.2455 14.893-2.7396m45.213-89.588 0.83727 0.83727-0.83727-0.83727m-1.6745 0.83727c-4.2399 5.2999-1.127 9.7249 1.6745 15.071l1.6745-1.6745c1.8278 2.192 7.3931 5.2472 7.5371-0.0494 0.12643-4.6519-3.2218-10.598-6.6998-13.347l5.0236 15.908c-6.1514-3.2704-7.3596-9.7065-9.21-15.908m12.559 0 8.3727 17.583h0.83727c-0.84816-5.7412-3.1155-15.571-9.21-17.583m-104.66 0.83727-3.3491 5.8609 3.3491-5.8609m90.984 2.233-0.27965 0.55763 0.27965-0.55763m-37.398 1.9534v0.83727l-19.257 9.21v0.83727c8.9621-3.7267 20.141-11.322 30.142-8.3727l-18.42 8.3727c7.1729-2.2933 19.053-8.0646 25.955-4.1863v0.83726l-7.5354 0.83727v0.83727c5.464-0.0151 9.611-1.2961 12.559 4.1864-31.068-2.4524-59.304 18.092-63.632 50.236h-0.83727c-4.7682-9.9652 6.0041-21.492 10.047-30.142l-13.396 23.444c-3.2293-11.775 9.7182-27.225 15.071-36.84-8.5862 8.9772-11.852 19.101-16.745 30.142h-0.83726c0.33574-11.564 7.8444-21.056 12.559-30.979l-10.047 13.396c-1.2793-4.6142 3.0569-10.611 5.6809-14.234 9.5181-13.138 23.055-18.42 38.694-18.42m38.236 0.55846-0.27965 0.55762 0.27965-0.55762m-126.99 1.9534 5.0236 12.559h0.83727l-2.5118-7.5354h0.83727l6.6982 7.5354c2.0279-7.6225-3.8272-13.408-10.884-12.559m38.514 0-7.5354 12.559h0.83727l6.6982-12.559m89.588 0 1.6745 5.8609h-0.83727l-0.83727-5.8609m-123.92 0.83727 5.8609 9.21c-2.7287-2.2213-6.169-5.4975-5.8609-9.21m166.62 0.83727 0.83727 3.3491-5.0236 0.83727 4.1863-4.1863m-167.73 2.233-0.27965 0.55762 0.27965-0.55762m-13.118 5.3024 3.3491 9.21c-3.8749-1.9115-5.9664-5.3058-3.3491-9.21m159.08 4.1864 0.83726 5.0236h0.83727v-5.0236h-1.6745m-51.073 1.9165c4.5849-0.59529 13.384-1.0608 17.152 2.151 6.035 5.1442 2.5436 20.737 0.23862 26.911-5.7244 15.336-20.129 27.508-36.648 29.161-6.73 0.674-22.254-0.0377-25.438-7.6677-2.5461-6.1012 3.5885-17.942 6.4419-23.168 7.9264-14.516 21.646-25.229 38.253-27.388m-38.514 1.4326 0.83726 0.83727-0.83726-0.83727m113.03 17.583c9.6144-5.3016-3.303-24.005-2.4364-10.047 0.0879 1.4058 0.31648 2.799 0.55845 4.1847 0.37678 2.1576 0.92854 3.9017 1.878 5.8626m-39.352-5.0236-0.83727 2.5118 5.0236-1.6745v-0.83727h-4.1864v-0.83727c6.0719-0.91514 8.8893-3.8874 9.21-10.047-4.3513 0.77615-8.973 3.0544-12.364 5.9388-3.926 3.3415-0.56264 5.361 3.154 4.9458m39.352-10.884 1.6745 14.234h-0.83727l-0.83727-14.234m-30.979 1.6745c-2.5202 4.7038-6.6554 5.953-11.722 6.6982l11.722-6.6982m-127.26 6.6982 5.0236-2.5118 4.1864 16.745-7.5354-13.396-4.1863-0.83727c0.0393 4.682 0.52329 8.5226 4.1863 11.722l-1.6745-7.5354h0.83727c1.2743 6.0936 3.8807 9.2217 8.3727 13.396h0.83727c3.9084-7.3236-0.48143-15.616-3.3491-22.606l-6.6982 5.0236m19.257-5.0236v4.1863h0.83727l0.83727-4.1863h-1.6745m-19.257 7.5354-0.83727 0.83727 0.83727-0.83727m43.538 0.83727 0.83727 0.83727-0.83727-0.83727m-14.512 1.3957-0.27964 0.55763 0.27964-0.55763m-49.957 5.3024h-0.83727v-2.5118c-3.9946 2.8342-1.6142 8.7587 0 12.559h0.83727v-3.3491c0.72507 1.6344 1.2626 3.3541 2.0002 4.9784 1.4635 3.2235 6.5734 4.6686 7.0104-0.0461 0.45715-4.9374-6.3984-24.158-9.0107-11.63m4.1864-3.3491c0.93439 4.9608 5.2212 14.631 0 17.583l-1.6745-17.583h1.6745m146.52 4.1864c4.2818 4.3689 11.373 2.3084 10.884-4.1864l-10.884 4.1864m-15.071-3.3491-9.21 20.094c4.5388-3.3508 13.143-14.415 9.21-20.094m24.281 1.6745v0.83727l-6.6982 1.6745 6.6982-2.5118m-8.3727 5.8609v0.83726l5.8609-0.83726h-5.8609m-8.1525 3.5634c-4.3094 1.7968-4.0808 15.547 1.1194 13.035 3.9067-1.888 4.8846-15.538-1.1194-13.035m0.61707 0.62293c3.3415 3.37 1.5205 7.6903 0 11.722-3.0184-3.1431-1.94-8.0738 0-11.722m-109.68 9.21c-1.2166 5.9262-2.1484 10.014 0 15.908h0.83727v-4.1863h0.83727l1.6745 2.5118-2.5118-13.396h4.1864l2.5118 17.583-4.1863-2.5118c-0.4672 3.0594 3.3407 6.3247 5.5687 2.8442 3.8808-6.0627-1.8319-19.42-8.9178-18.752m121.4 0-1.6745 11.722c5.6156-0.91681 7.4718-9.7977 1.6745-11.722m13.396 24.281c5.4908-4.7892 5.9714-8.9546 7.0414-15.908 0.25704-1.672 1.2718-6.2678-1.3346-6.7643-2.346-0.44626-3.2226 3.5458-3.6312 5.0906-1.4728 5.5754-2.0279 11.827-2.0756 17.582m-43.538-22.606-2.5118 4.1863 2.5118-4.1863m49.399 0c-8.3e-4 5.2095 0.45213 15.146-4.1863 18.42 4e-3 -5.8483 0.19425-13.834 4.1863-18.42m-17.583 1.6745-0.83727 6.6982h-0.83726l1.6745-6.6982m-159.92 4.1863-6.6982 5.0236-0.83727-5.0236h7.5354m37.677 0.83727v2.5118h-0.83727l0.83727-2.5118m-23.444 6.6982c0.21852 4.7833 1.3346 9.3381 5.0236 12.559l-1.6745-5.8609c1.729 2.593 2.7396 7.1796 5.0236 9.21 1.4275 1.2685 5.5871 0.82889 6.6982-0.83727 1.9408-2.9104-3.7476-15.892-5.8609-17.583-3.1774-2.542-8.2078 2.7622-9.21 2.5118m111.36-1.6745v1.6745l12.559 0.83727v1.6745c-6.1389 1.1437-10.052 1.9458-14.234-3.3491h-0.83727l4.1864 9.21 10.047-1.6745v-0.83727h-4.1864c14.517-4.9801 0.0486-7.5363-7.5354-7.5354m37.677 0-0.83727 8.3727c3.5525-1.9123 4.0825-4.5472 3.3491-8.3727h-2.5118m-136.47 15.908c-5.145-2.6667-7.1109-9.117-9.21-14.234 6.8078-1.5808 8.1759 9.2376 9.21 14.234m102.98-12.559v0.83727l5.0236-0.83727h-5.0236m-77.029 0 8.3727 5.8609v-0.83727l-8.3727-5.0236m-35.444 3.0703-0.27965 0.55762 0.27965-0.55762m114.98 1.1161v0.83727h-3.3491l3.3491-0.83727m22.885 0.55846 0.27965 0.55762-0.27965-0.55762m3.0703 2.7906v2.5118h0.83726l-0.83726-2.5118m-30.142 10.047 0.83727 4.1864c4.641-0.62544 10.337-1.9048 14.105-4.8687 2.6374-2.0731 2.2707-5.8642-1.5623-6.0225-4.3421-0.18001-9.5223 4.9014-13.38 6.7048m10.884 5.8609v0.83726c11.523-3.653 30.015-0.56515 36.003-13.396l-36.003 12.559m-79.541-9.21v-1.6745c-3.4797 2.8291-5.3677 7.9566-4.5188 12.543 0.50906 2.7471 3.8799 5.7244 6.601 3.6178 4.1277-3.1942 7.6593-21.403-2.0823-14.486m84.564-0.83727c-3.4462 3.7677-9.2694 5.1802-14.234 5.8609 2.8074-3.8297 9.611-7.08 14.234-5.8609m-79.541 0-4.1863 14.234c-6.3632-3.6053-1.5657-12.531 4.1863-14.234m13.396 0.83727v0.83726l10.884 2.5118-10.884-3.3491m60.283 0.83726-0.83727 1.6745 0.83727-1.6745m-35.733 1.7139c-4.0206 2.4976-0.25788 22.305 6.1598 17.625 3.6764-2.6801 0.47892-21.749-6.1598-17.625m3.0795 1.6352c0.85402 4.404 4.4735 12.16 0 15.071l-3.3491-15.071h3.3491m-91.262 3.3491 14.234 10.884-16.745-5.8609 2.5118-5.0236m158.24 5.0236c-27.068 47.507-96.252 52.948-138.99 26.793v-0.83727l16.745 5.0236v-0.83727c-10.82-1.9232-26.256-8.5075-32.654-17.583 11.987 3.977 24.349 2.2715 36.003 5.644 7.1695 2.0748 12.492 8.1207 19.257 11.085 21.02 9.2125 36.483 1.4853 51.911-13.364 3.8866-3.7418 8.2312-7.8084 13.396-9.6403 1.9969-0.70833 5.4347-2.0898 5.8609 0.41444l11.722-2.5118-19.257 15.071 29.304-15.908c-6.4252 9.1154-21.122 20.036-31.816 23.444v0.83727c9.5742-2.274 19.732-9.1572 26.65-16.051 4.0114-3.9963 6.7342-8.8952 11.864-11.579m-51.073 3.3491c-8.0755 7.7288-15.949 16.335-26.793 20.094v0.83726c9.3749-0.2202 25.504-11.049 26.793-20.932m14.234 10.047 8.3727-6.6982-8.3727 6.6982m-59.446-4.1864c3.2109 6.1749 10.688 6.1472 16.745 5.0236-3.8648 7.6627-16.969 3.8757-17.583-4.1864h-0.83727c0.1348 11.391 18.909 15.573 20.094 2.5118l-18.42-3.3491m0 10.884v0.83727h2.5118l-2.5118-0.83727m-36.84 0.83727v0.83727l19.257 5.8609v-0.83727l-19.257-5.8609m10.884 10.047 0.83727 0.83727-0.83727-0.83727m71.168 0c-10.237 5.953-25.104 8.3727-36.84 8.3727v1.6745c9.4561 0.40523 19.407-0.70666 28.467-3.9352 3.1038-1.106 7.4408-2.7488 8.3727-6.1121m-60.283 4.1863v0.83727h10.884l-10.884-0.83727m-25.115 37.387c-10.87 3.4554-4.1596 15.486 5.8542 12.303 10.792-3.4303 3.869-15.394-5.8542-12.303m79.537 60.574c-1.1119-6.5684-3.1314-10.977 4.1864-14.234 4.1796 8.9521 20.252 28.041 26.793 9.21-4.0909-2.1225-14.306-11.005-11.724-16.591 2.7848-6.0258 10.637-6.9041 9.9459-15.222-0.54841-6.5985-11.068-9.1664-14.944-3.7602-1.5782 2.202-1.0968 5.5159-2.542 7.9432-2.8484 4.7833-8.0261 8.6272-12.552 11.722 0.72424-5.6097 1.9818-11.232 3.2494-16.745 0.96872-4.2123 3.7937-11.651 1.4954-15.717-2.9087-5.1467-14.825-2.4892-17.515 1.8102-1.4711 2.3502 1.5841 10.249 0.98128 13.907-2.2338 13.547-12.642 47.971 12.626 37.677m56.934-14.234c4.5321 10.884 17.079 25.468 26.793 10.047l-14.234-17.583c4.6678-2.0404 9.539-5.1827 11.646-10.048 2.5445-5.8718-0.8222-11.878-7.4601-11.539-2.9078 0.1482-5.6809 1.3271-8.3727 2.3301 2.1292 9.2979-6.8045 15.127-13.396 20.094 0.46887-5.9379 1.9173-11.788 3.2494-17.583 0.97207-4.2265 3.1749-10.651 1.2693-14.88-2.4582-5.4523-14.752-2.1568-17.298 1.8102-1.7022 2.6525 1.7566 7.9708 1.2601 11.395-1.5247 10.51-4.7423 21.16-5.0094 31.816-0.11471 4.574 1.4267 9.7843 6.4846 10.693 13.996 2.5126 5.5779-12.33 15.067-16.554m42.701-41.421c-2.5319 0.58023-7.1452 2.0153-8.1165 4.759-1.0365 2.9254 2.1317 7.1787 1.621 10.706-1.5381 10.607-5.3527 21.882-5.0086 32.653 0.21853 6.8497 4.404 11.35 11.503 9.7174 7.2675-1.672 4.1604-9.9551 4.188-15.578 0.0519-10.82 3.8364-21.212 5.4925-31.816 1.1881-7.6074-1.2576-12.371-9.6797-10.442m-293.04 55.654v0.83727c-5.1485 0.23946-14.382 7.0079-6.5069 11.443 4.3073 2.4264 7.4617-2.0856 11.531-2.017 6.9909 0.11889 13.21 7.1017 20.932 7.0314 4.9616-0.0452 16.142-8.9228 9.4257-13.889-1.9638-1.4518-5.6142 0.0804-7.7512 0.41361-5.1033 0.79457-9.9838-0.36505-15.071-0.46971v-0.83727c14.379-0.62711 25.961-12.618 27.485-26.793 1.0602-9.8672-1.549-24.864-14.925-19.257-0.63674-11.63-14.048-10.196-21.769-5.9404-15.517 8.5544-25.692 42.339-3.3491 49.478m49.399-40.189c1.6025 12.682-10.869 43.626 10.884 42.666 2.3485-0.10382 4.5363-0.61204 6.6982-1.5397 3.2821-1.41 5.8081-3.5299 8.3727-5.9614 1.8704 9.2434 11.233 8.6498 17.583 4.1863v-0.83727c-6.7425-11.007 3.0502-24.339 2.9489-35.998-0.0561-6.4101-6.8187-6.1539-11.322-4.569-2.8777 1.0123-5.5586 2.5562-8.3727 3.7275 2.7111 8.5234 3.9787 17.244-0.82722 25.952-1.9684 3.5659-7.4902 7.8427-11.466 4.5212-8.1014-6.7693 13.236-40.165-7.8017-34.526-2.2958 0.61539-4.4853 1.5263-6.6982 2.3787m70.331 40.189c-2.0882-7.8921-1.6235-14.679 0.31313-22.606 1.1747-4.8051 4.0239-11.773 2.7663-16.709-1.7658-6.9359-14.382-3.6413-17.599 0.4965-2.0547 2.6424 1.6494 7.7506 1.0081 11.188-1.6678 8.9337-9.8873 33.13 7.6493 29.857 2.0865-0.38849 3.9569-1.338 5.8626-2.2271m40.189-15.908c-1.5523 6.457-9.6261 15.845-14.954 6.6613-5.1651-8.9027 1.209-19.667 8.2555-25.081 3.4654 6.5232 18.25 10.539 17.304-0.83727-0.90928-10.926-19.033-8.7855-25.677-5.9614-25.628 10.894-18.112 50.646 11.722 43.001 10.207-2.6156 18.621-16.439 3.3491-17.783m176.66 0.83727c-1.9609 12.345-14.494 11.608-15.071-0.83727 8.4146-0.3617 19.874-1.4493 25.605-8.4506 4.7758-5.8358 3.4387-14.841-3.8389-17.66-6.9887-2.7069-16.146-1.358-22.602 2.2724-26.438 14.864-9.3623 55.224 19.253 39.397 8.9839-4.9692 6.03-13.897-3.3457-14.722m-313.98-25.955c-3.3074 9.0743 0.0462 14.665 7.5354 20.094-2.2229 9.5809-14.809 23.089-23.921 11.676-10.303-12.905 1.9517-31.761 16.386-31.77m299.74 19.257c0.92183-3.8799 9.2418-18.952 14.174-10.618 4.2433 7.1687-10.01 10.278-14.174 10.618z" fill="#0c0901"/>
</svg>
